<svg xmlns="http://www.w3.org/2000/svg" width="133.439" height="70.883" viewBox="0 0 133.439 70.883"><defs><style>.a{fill:none;}.b{fill:#e7161c;}.c{fill:#3a4447;}</style></defs><g transform="translate(-344.11 -212.66)"><line class="a" y1="0.405" transform="translate(419.039 263.35)"/><path class="b" d="M374.718,212.66v6.711L356,246.523h19.456v7.635H344.61V247.2L363.2,220.294H344.98V212.66Z"/><path class="b" d="M414.212,212.66l-14.347,26.228v15.27h-9.481V238.95l-14.161-26.29H387.3l2.524,6.033q1.971,4.68,3.264,8t1.662,4.311l.308.984q.615-2.771,5.418-13.3l2.709-6.033Z"/><path class="b" d="M437.37,214.753v8.866a20.336,20.336,0,0,0-10.343-2.894,5.86,5.86,0,0,0-3.663.985,3.065,3.065,0,0,0-1.263,2.524,3.449,3.449,0,0,0,1.539,2.74,22.448,22.448,0,0,0,4.618,2.556q1.908.862,3.171,1.508a25.648,25.648,0,0,1,2.894,1.786,11.364,11.364,0,0,1,2.586,2.4,11.954,11.954,0,0,1,1.631,3.109,11.532,11.532,0,0,1,.677,4,11.314,11.314,0,0,1-4.124,9.082q-4.126,3.479-10.96,3.478-7.328,0-11.944-2.585v-9.544a19.982,19.982,0,0,0,11.944,4.064,5.515,5.515,0,0,0,3.571-1.139,3.845,3.845,0,0,0,1.232-4.156,2.7,2.7,0,0,0-.678-1.047,8.357,8.357,0,0,0-.954-.831,10.922,10.922,0,0,0-1.354-.8q-.894-.46-1.508-.769c-.412-.205-1.016-.493-1.817-.862s-1.447-.656-1.939-.862a19.4,19.4,0,0,1-6.434-4.556,10.375,10.375,0,0,1-2.433-7.2,10.727,10.727,0,0,1,3.941-8.651q3.939-3.293,10.9-3.293A25.2,25.2,0,0,1,437.37,214.753Z"/><path class="b" d="M441.338,254.158v-41.5h9.482v41.5Zm21-20.75,14.715,20.75H465.166l-13.915-20.626,13.422-20.872h11.268Z"/><path class="c" d="M365.608,269.817v4.89q0,1.279,1.227,1.28a1.907,1.907,0,0,0,1.21-.386v1.542a2.94,2.94,0,0,1-1.42.315,2.448,2.448,0,0,1-2.752-2.787v-4.854h-1.385v-1.333h1.385v-2.173h1.735v2.173h2.331v1.333Z"/><path class="c" d="M376.563,275.355V276.9a5.212,5.212,0,0,1-2.594.56,4.25,4.25,0,0,1-4.523-4.505,4.765,4.765,0,0,1,1.122-3.356,3.713,3.713,0,0,1,2.857-1.218,3.526,3.526,0,0,1,2.7,1.061,4.29,4.29,0,0,1,1,3.058,6.467,6.467,0,0,1-.106,1.139h-5.837a2.614,2.614,0,0,0,.982,1.771,3.264,3.264,0,0,0,2.033.613A4.015,4.015,0,0,0,376.563,275.355Zm-1.1-3.067v-.316a2.489,2.489,0,0,0-.542-1.586,1.825,1.825,0,0,0-1.455-.588,2.046,2.046,0,0,0-1.508.64,3.134,3.134,0,0,0-.789,1.85Z"/><path class="c" d="M380.418,272.972a3.3,3.3,0,0,0,.824,2.216,2.832,2.832,0,0,0,2.208.869,3.6,3.6,0,0,0,1.964-.579v1.543a4.145,4.145,0,0,1-2.191.525,4.365,4.365,0,0,1-3.33-1.315,4.58,4.58,0,0,1-1.245-3.278,4.651,4.651,0,0,1,1.253-3.268,4.392,4.392,0,0,1,3.392-1.359,4.611,4.611,0,0,1,2.121.491v1.578a3.556,3.556,0,0,0-1.945-.544,2.915,2.915,0,0,0-2.218.877A3.126,3.126,0,0,0,380.418,272.972Z"/><path class="c" d="M389.113,264.978v5.032a3.113,3.113,0,0,1,4.837-.842,3.071,3.071,0,0,1,.79,2.243v5.96h-1.719v-5.609a1.994,1.994,0,0,0-.464-1.411,1.584,1.584,0,0,0-1.218-.5,2.146,2.146,0,0,0-1.551.666,2.747,2.747,0,0,0-.675,2.034v4.82h-1.718V264.978Z"/><path class="c" d="M398.771,268.484v1.526a2.813,2.813,0,0,1,2.769-1.648,2.746,2.746,0,0,1,2.085.806,3.034,3.034,0,0,1,.772,2.191v6.012H402.68v-5.609a1.988,1.988,0,0,0-.466-1.42,1.62,1.62,0,0,0-1.235-.491,2.039,2.039,0,0,0-1.56.71,2.847,2.847,0,0,0-.648,1.99v4.82h-1.718v-8.887Z"/><path class="c" d="M410.426,277.529a3.887,3.887,0,0,1-3.085-1.28,4.737,4.737,0,0,1-1.122-3.243,4.866,4.866,0,0,1,1.157-3.321,3.853,3.853,0,0,1,3.05-1.323,3.9,3.9,0,0,1,3.137,1.288,5.4,5.4,0,0,1-.025,6.581A3.914,3.914,0,0,1,410.426,277.529Zm-.018-7.712a2.036,2.036,0,0,0-1.77.9,3.81,3.81,0,0,0-.63,2.234,3.7,3.7,0,0,0,.648,2.218,2.061,2.061,0,0,0,1.77.9,2.083,2.083,0,0,0,1.814-.877,3.75,3.75,0,0,0,.622-2.225,3.991,3.991,0,0,0-.6-2.271A2.083,2.083,0,0,0,410.408,269.817Z"/><path class="c" d="M416.666,277.371V264.978H418.4v12.393Z"/><path class="c" d="M424.607,277.529a3.885,3.885,0,0,1-3.085-1.28,4.738,4.738,0,0,1-1.123-3.243,4.866,4.866,0,0,1,1.157-3.321,3.853,3.853,0,0,1,3.051-1.323,3.906,3.906,0,0,1,3.137,1.288,5.4,5.4,0,0,1-.026,6.581A3.912,3.912,0,0,1,424.607,277.529Zm-.018-7.712a2.035,2.035,0,0,0-1.77.9,3.8,3.8,0,0,0-.631,2.234,3.7,3.7,0,0,0,.648,2.218,2.25,2.25,0,0,0,3.585.026,3.757,3.757,0,0,0,.622-2.225,3.991,3.991,0,0,0-.6-2.271A2.08,2.08,0,0,0,424.589,269.817Z"/><path class="c" d="M436.544,268.484h1.717v8.133a3.935,3.935,0,0,1-1.166,3.094,4.313,4.313,0,0,1-2.988,1.043,6.517,6.517,0,0,1-2.892-.578V278.44a4.846,4.846,0,0,0,2.717.736,2.293,2.293,0,0,0,2.612-2.576v-.912a2.811,2.811,0,0,1-2.578,1.437,3.439,3.439,0,0,1-2.576-1.113,4.358,4.358,0,0,1-1.069-3.146,5.071,5.071,0,0,1,1-3.233,3.2,3.2,0,0,1,2.646-1.271,2.718,2.718,0,0,1,2.578,1.506Zm-2.262,7.169a2.117,2.117,0,0,0,1.586-.71,2.772,2.772,0,0,0,.676-1.99,3.555,3.555,0,0,0-.64-2.331,1.972,1.972,0,0,0-1.552-.754,1.911,1.911,0,0,0-1.63.816,3.551,3.551,0,0,0-.6,2.147,3.067,3.067,0,0,0,.64,2.1A1.966,1.966,0,0,0,434.282,275.653Z"/><path class="c" d="M440.741,266.529a1.027,1.027,0,0,1-.307-.761,1.061,1.061,0,0,1,.307-.771,1.013,1.013,0,0,1,.762-.316,1.079,1.079,0,0,1,1.087,1.087,1.028,1.028,0,0,1-.316.753,1.045,1.045,0,0,1-.771.315A1.031,1.031,0,0,1,440.741,266.529Zm-.1,10.842v-8.887h1.735v8.887Z"/><path class="c" d="M451.494,275.355V276.9a5.207,5.207,0,0,1-2.594.56,4.248,4.248,0,0,1-4.522-4.505A4.765,4.765,0,0,1,445.5,269.6a3.711,3.711,0,0,1,2.856-1.218,3.529,3.529,0,0,1,2.7,1.061,4.294,4.294,0,0,1,1,3.058,6.56,6.56,0,0,1-.1,1.139h-5.836a2.6,2.6,0,0,0,.981,1.771,3.26,3.26,0,0,0,2.033.613A4.012,4.012,0,0,0,451.494,275.355Zm-1.1-3.067v-.316a2.489,2.489,0,0,0-.543-1.586,1.822,1.822,0,0,0-1.455-.588,2.044,2.044,0,0,0-1.507.64,3.135,3.135,0,0,0-.79,1.85Z"/><path class="c" d="M459.135,268.782v1.56a4.285,4.285,0,0,0-2.208-.508,1.543,1.543,0,0,0-.972.28.889.889,0,0,0-.36.737.965.965,0,0,0,.027.236.742.742,0,0,0,.1.228,2.066,2.066,0,0,0,.131.193.768.768,0,0,0,.2.166c.094.059.167.109.22.149a1.406,1.406,0,0,0,.263.149l.271.132c.059.029.161.076.307.14s.248.108.307.131a5.511,5.511,0,0,1,1.621,1.025,2.022,2.022,0,0,1,.588,1.517,2.261,2.261,0,0,1-.842,1.867,3.539,3.539,0,0,1-2.279.674,5.848,5.848,0,0,1-2.629-.526V275.3a4.8,4.8,0,0,0,2.542.754,1.747,1.747,0,0,0,1.06-.281.873.873,0,0,0,.377-.736.97.97,0,0,0-.3-.693,2.192,2.192,0,0,0-.605-.455c-.2-.1-.551-.255-1.043-.465q-2.085-.858-2.085-2.524a2.184,2.184,0,0,1,.876-1.84,3.52,3.52,0,0,1,2.191-.667A5.3,5.3,0,0,1,459.135,268.782Z"/><path class="b" d="M477.549,283.543H344.11V261.266H477.549Zm-132.439-1H476.549V262.266H345.11Z"/></g></svg>